<mxfile host="Electron" modified="2024-03-20T21:11:24.981Z" agent="Mozilla/5.0 (Windows NT 10.0; Win64; x64) AppleWebKit/537.36 (KHTML, like Gecko) draw.io/21.6.8 Chrome/114.0.5735.289 Electron/25.5.0 Safari/537.36" etag="2LbDHG__qencRkLIlG1-" version="21.6.8" type="device">
  <diagram name="Pagina-1" id="oDD2D0068ZuILZNGYnRw">
    <mxGraphModel dx="1434" dy="836" grid="1" gridSize="10" guides="1" tooltips="1" connect="1" arrows="1" fold="1" page="1" pageScale="1" pageWidth="1169" pageHeight="827" math="0" shadow="0">
      <root>
        <mxCell id="0" />
        <mxCell id="1" parent="0" />
        <mxCell id="CLdEoLwWaU39GCBXoVy6-3" value="" style="edgeStyle=orthogonalEdgeStyle;rounded=0;orthogonalLoop=1;jettySize=auto;html=1;" edge="1" parent="1" source="CLdEoLwWaU39GCBXoVy6-1" target="CLdEoLwWaU39GCBXoVy6-2">
          <mxGeometry relative="1" as="geometry" />
        </mxCell>
        <mxCell id="CLdEoLwWaU39GCBXoVy6-1" value="START" style="ellipse;whiteSpace=wrap;html=1;" vertex="1" parent="1">
          <mxGeometry x="10" y="15" width="120" height="50" as="geometry" />
        </mxCell>
        <mxCell id="CLdEoLwWaU39GCBXoVy6-5" value="" style="edgeStyle=orthogonalEdgeStyle;rounded=0;orthogonalLoop=1;jettySize=auto;html=1;" edge="1" parent="1" source="CLdEoLwWaU39GCBXoVy6-2" target="CLdEoLwWaU39GCBXoVy6-4">
          <mxGeometry relative="1" as="geometry" />
        </mxCell>
        <mxCell id="CLdEoLwWaU39GCBXoVy6-2" value="INITIALIZE ALL PERIFERALS" style="whiteSpace=wrap;html=1;" vertex="1" parent="1">
          <mxGeometry x="170" y="10" width="120" height="60" as="geometry" />
        </mxCell>
        <mxCell id="CLdEoLwWaU39GCBXoVy6-11" value="" style="edgeStyle=orthogonalEdgeStyle;rounded=0;orthogonalLoop=1;jettySize=auto;html=1;" edge="1" parent="1" source="CLdEoLwWaU39GCBXoVy6-4" target="CLdEoLwWaU39GCBXoVy6-10">
          <mxGeometry relative="1" as="geometry" />
        </mxCell>
        <mxCell id="CLdEoLwWaU39GCBXoVy6-4" value="START LOOP" style="ellipse;whiteSpace=wrap;html=1;" vertex="1" parent="1">
          <mxGeometry x="330" y="12.5" width="140" height="55" as="geometry" />
        </mxCell>
        <mxCell id="CLdEoLwWaU39GCBXoVy6-13" value="" style="edgeStyle=orthogonalEdgeStyle;rounded=0;orthogonalLoop=1;jettySize=auto;html=1;" edge="1" parent="1" source="CLdEoLwWaU39GCBXoVy6-10" target="CLdEoLwWaU39GCBXoVy6-12">
          <mxGeometry relative="1" as="geometry" />
        </mxCell>
        <mxCell id="CLdEoLwWaU39GCBXoVy6-10" value="CHECK WHICH MENU IS ACTIVE" style="shape=parallelogram;perimeter=parallelogramPerimeter;whiteSpace=wrap;html=1;fixedSize=1;" vertex="1" parent="1">
          <mxGeometry x="340" y="95" width="120" height="60" as="geometry" />
        </mxCell>
        <mxCell id="CLdEoLwWaU39GCBXoVy6-36" value="" style="edgeStyle=orthogonalEdgeStyle;rounded=0;orthogonalLoop=1;jettySize=auto;html=1;" edge="1" parent="1" source="CLdEoLwWaU39GCBXoVy6-12" target="CLdEoLwWaU39GCBXoVy6-31">
          <mxGeometry relative="1" as="geometry" />
        </mxCell>
        <mxCell id="CLdEoLwWaU39GCBXoVy6-12" value="COLLECT ALL THE NECESSARY DATA FOR THE MENU&lt;br&gt;- TEMP SET&lt;br&gt;- TEMP REAL&lt;br&gt;- CALC TEMP SET" style="whiteSpace=wrap;html=1;" vertex="1" parent="1">
          <mxGeometry x="340" y="180" width="120" height="90" as="geometry" />
        </mxCell>
        <mxCell id="CLdEoLwWaU39GCBXoVy6-17" value="" style="edgeStyle=orthogonalEdgeStyle;rounded=0;orthogonalLoop=1;jettySize=auto;html=1;" edge="1" parent="1" source="CLdEoLwWaU39GCBXoVy6-14" target="CLdEoLwWaU39GCBXoVy6-16">
          <mxGeometry relative="1" as="geometry" />
        </mxCell>
        <mxCell id="CLdEoLwWaU39GCBXoVy6-14" value="DRAW ALL GRAPHICS" style="whiteSpace=wrap;html=1;" vertex="1" parent="1">
          <mxGeometry x="340" y="540" width="120" height="60" as="geometry" />
        </mxCell>
        <mxCell id="CLdEoLwWaU39GCBXoVy6-18" style="edgeStyle=orthogonalEdgeStyle;rounded=0;orthogonalLoop=1;jettySize=auto;html=1;entryX=1;entryY=0.5;entryDx=0;entryDy=0;" edge="1" parent="1" source="CLdEoLwWaU39GCBXoVy6-16" target="CLdEoLwWaU39GCBXoVy6-4">
          <mxGeometry relative="1" as="geometry">
            <Array as="points">
              <mxPoint x="570" y="660" />
              <mxPoint x="570" y="40" />
            </Array>
          </mxGeometry>
        </mxCell>
        <mxCell id="CLdEoLwWaU39GCBXoVy6-16" value="UPDATE SCREEN" style="whiteSpace=wrap;html=1;" vertex="1" parent="1">
          <mxGeometry x="340" y="630" width="120" height="60" as="geometry" />
        </mxCell>
        <mxCell id="CLdEoLwWaU39GCBXoVy6-21" value="" style="edgeStyle=orthogonalEdgeStyle;rounded=0;orthogonalLoop=1;jettySize=auto;html=1;" edge="1" parent="1" source="CLdEoLwWaU39GCBXoVy6-19" target="CLdEoLwWaU39GCBXoVy6-20">
          <mxGeometry relative="1" as="geometry" />
        </mxCell>
        <mxCell id="CLdEoLwWaU39GCBXoVy6-19" value="ENCODER INTERRUPT" style="ellipse;whiteSpace=wrap;html=1;" vertex="1" parent="1">
          <mxGeometry x="720" y="15" width="120" height="80" as="geometry" />
        </mxCell>
        <mxCell id="CLdEoLwWaU39GCBXoVy6-28" value="" style="edgeStyle=orthogonalEdgeStyle;rounded=0;orthogonalLoop=1;jettySize=auto;html=1;" edge="1" parent="1" source="CLdEoLwWaU39GCBXoVy6-20" target="CLdEoLwWaU39GCBXoVy6-27">
          <mxGeometry relative="1" as="geometry" />
        </mxCell>
        <mxCell id="CLdEoLwWaU39GCBXoVy6-20" value="UPDATE ENCODER VALUE" style="whiteSpace=wrap;html=1;" vertex="1" parent="1">
          <mxGeometry x="720" y="135" width="120" height="60" as="geometry" />
        </mxCell>
        <mxCell id="CLdEoLwWaU39GCBXoVy6-24" value="" style="edgeStyle=orthogonalEdgeStyle;rounded=0;orthogonalLoop=1;jettySize=auto;html=1;" edge="1" parent="1" source="CLdEoLwWaU39GCBXoVy6-25" target="CLdEoLwWaU39GCBXoVy6-26">
          <mxGeometry relative="1" as="geometry" />
        </mxCell>
        <mxCell id="CLdEoLwWaU39GCBXoVy6-25" value="ENCODER SWITCH INTERRUPT" style="ellipse;whiteSpace=wrap;html=1;" vertex="1" parent="1">
          <mxGeometry x="900" y="15" width="120" height="80" as="geometry" />
        </mxCell>
        <mxCell id="CLdEoLwWaU39GCBXoVy6-30" value="" style="edgeStyle=orthogonalEdgeStyle;rounded=0;orthogonalLoop=1;jettySize=auto;html=1;" edge="1" parent="1" source="CLdEoLwWaU39GCBXoVy6-26" target="CLdEoLwWaU39GCBXoVy6-29">
          <mxGeometry relative="1" as="geometry" />
        </mxCell>
        <mxCell id="CLdEoLwWaU39GCBXoVy6-26" value="CHANGE THE MENU ACTIVE" style="whiteSpace=wrap;html=1;" vertex="1" parent="1">
          <mxGeometry x="900" y="135" width="120" height="60" as="geometry" />
        </mxCell>
        <mxCell id="CLdEoLwWaU39GCBXoVy6-27" value="RETURN" style="ellipse;whiteSpace=wrap;html=1;" vertex="1" parent="1">
          <mxGeometry x="740" y="240" width="80" height="35" as="geometry" />
        </mxCell>
        <mxCell id="CLdEoLwWaU39GCBXoVy6-29" value="RETURN" style="ellipse;whiteSpace=wrap;html=1;" vertex="1" parent="1">
          <mxGeometry x="920" y="240" width="80" height="35" as="geometry" />
        </mxCell>
        <mxCell id="CLdEoLwWaU39GCBXoVy6-35" value="" style="edgeStyle=orthogonalEdgeStyle;rounded=0;orthogonalLoop=1;jettySize=auto;html=1;" edge="1" parent="1" source="CLdEoLwWaU39GCBXoVy6-31" target="CLdEoLwWaU39GCBXoVy6-14">
          <mxGeometry relative="1" as="geometry" />
        </mxCell>
        <mxCell id="CLdEoLwWaU39GCBXoVy6-31" value="CONTROL THE SOLDERING IRON DUTY CYCLE IN BASE OF THE TARGET TEMPERATURE AND REAL TEMPERATURE" style="whiteSpace=wrap;html=1;" vertex="1" parent="1">
          <mxGeometry x="340" y="294" width="120" height="120" as="geometry" />
        </mxCell>
        <mxCell id="CLdEoLwWaU39GCBXoVy6-37" value="" style="endArrow=none;dashed=1;html=1;rounded=0;" edge="1" parent="1">
          <mxGeometry width="50" height="50" relative="1" as="geometry">
            <mxPoint x="320" y="520" as="sourcePoint" />
            <mxPoint x="320" y="520" as="targetPoint" />
            <Array as="points">
              <mxPoint x="320" y="710" />
              <mxPoint x="480" y="710" />
              <mxPoint x="480" y="520" />
            </Array>
          </mxGeometry>
        </mxCell>
        <mxCell id="CLdEoLwWaU39GCBXoVy6-38" value="every 0.5s or more" style="text;strokeColor=default;fillColor=none;align=left;verticalAlign=middle;spacingLeft=4;spacingRight=4;overflow=hidden;points=[[0,0.5],[1,0.5]];portConstraint=eastwest;rotatable=0;whiteSpace=wrap;html=1;glass=0;rounded=0;perimeterSpacing=1;dashed=1;" vertex="1" parent="1">
          <mxGeometry x="180" y="550" width="80" height="40" as="geometry" />
        </mxCell>
        <mxCell id="CLdEoLwWaU39GCBXoVy6-39" value="" style="endArrow=none;dashed=1;html=1;rounded=0;exitX=1;exitY=0.5;exitDx=0;exitDy=0;" edge="1" parent="1" source="CLdEoLwWaU39GCBXoVy6-38">
          <mxGeometry width="50" height="50" relative="1" as="geometry">
            <mxPoint x="570" y="350" as="sourcePoint" />
            <mxPoint x="320" y="570" as="targetPoint" />
          </mxGeometry>
        </mxCell>
        <mxCell id="CLdEoLwWaU39GCBXoVy6-41" value="PID control ?" style="text;strokeColor=default;fillColor=none;align=left;verticalAlign=middle;spacingLeft=4;spacingRight=4;overflow=hidden;points=[[0,0.5],[1,0.5]];portConstraint=eastwest;rotatable=0;whiteSpace=wrap;html=1;dashed=1;" vertex="1" parent="1">
          <mxGeometry x="180" y="339" width="80" height="30" as="geometry" />
        </mxCell>
        <mxCell id="CLdEoLwWaU39GCBXoVy6-43" value="" style="endArrow=none;dashed=1;html=1;rounded=0;exitX=1;exitY=0.5;exitDx=0;exitDy=0;entryX=0;entryY=0.5;entryDx=0;entryDy=0;" edge="1" parent="1" source="CLdEoLwWaU39GCBXoVy6-41" target="CLdEoLwWaU39GCBXoVy6-31">
          <mxGeometry width="50" height="50" relative="1" as="geometry">
            <mxPoint x="570" y="350" as="sourcePoint" />
            <mxPoint x="620" y="300" as="targetPoint" />
          </mxGeometry>
        </mxCell>
      </root>
    </mxGraphModel>
  </diagram>
</mxfile>
